<mxfile host="app.diagrams.net" modified="2023-11-25T08:50:13.364Z" agent="Mozilla/5.0 (Macintosh; Intel Mac OS X 10_15_7) AppleWebKit/605.1.15 (KHTML, like Gecko) Version/16.6 Safari/605.1.15" version="22.1.4" etag="1dFgdJBy9GPRoQafhQwk" type="github">
  <diagram name="Page-1" id="VEEcHr_Mc2EGBdQ7Av7T">
    <mxGraphModel>
      <root>
        <mxCell id="0" />
        <mxCell id="1" parent="0" />
      </root>
    </mxGraphModel>
  </diagram>
</mxfile>
